# xmcd
#
# Track frame offsets:
#	150
#	15807
#	32047
#	48450
#	61557
#	78532
#	92092
#	102812
#	119850
#	141857
#	158557
#	169627
#
# Disc length: 2437 seconds
#
# Revision: 2
# Processed by: cddbd v1.4PL0 Copyright (c) Steve Scherf et al.
# Submitted via: EasyCDDAExtractor 4.6.9.1
#
DISCID=8c09830c
DTITLE=Conway Twitty - The Very Best of Conway Twitty (Disk Two)
DYEAR=1989
DGENRE=Country
TTITLE0=Goodbye Time
TTITLE1=The Rose
TTITLE2=I Want to Know you Before we Make Love
TTITLE3=Happy Birthday Darlin'
TTITLE4=She's got a Single Thing in Mind
TTITLE5=I Don't Know a Thing About Love (The Moon Song)
TTITLE6=It's Only Make Beleive
TTITLE7=Julia
TTITLE8=That's My Job
TTITLE9=She Thinks I still Care
TTITLE10=Desperado Love
TTITLE11=Slow Hand
EXTD=
EXTT0=
EXTT1=
EXTT2=
EXTT3=
EXTT4=
EXTT5=
EXTT6=
EXTT7=
EXTT8=
EXTT9=
EXTT10=
EXTT11=
PLAYORDER=
